<svg width="161" height="66" viewBox="0 0 161 66" fill="none" xmlns="http://www.w3.org/2000/svg">
<g clip-path="url(#clip0_3694_24636)">
<path d="M42.9062 38.1629V20.6465H50.0324C52.1233 20.6465 53.859 21.0563 55.2396 21.876C56.6201 22.6956 57.3096 24.0681 57.3096 25.9919C57.3096 27.0462 57.0749 27.9574 56.6072 28.7273C56.138 29.4971 55.4437 30.1158 54.5244 30.5835L58.8155 38.2127H54.6754L50.987 31.4626C50.7701 31.4964 50.4358 31.5125 49.9826 31.5125H46.5191V38.2384L42.9062 38.1629ZM52.3917 27.8867C52.8931 27.7614 53.2322 27.5524 53.4074 27.2599C53.5826 26.9674 53.671 26.5447 53.671 25.9935C53.671 25.4921 53.5745 25.1063 53.3817 24.8396C53.1888 24.5728 52.8304 24.3751 52.3033 24.2497C51.7761 24.1244 51.0015 24.0617 49.9826 24.0617H46.5191V28.0764H50.132C51.1365 28.0764 51.8886 28.0137 52.3901 27.8883L52.3917 27.8867Z" fill="black"/>
<path d="M62.1251 37.3973C60.7365 36.6693 59.6565 35.6246 58.8883 34.2602C58.1185 32.8973 57.7344 31.2789 57.7344 29.405C57.7344 27.531 58.1185 25.9046 58.8883 24.524C59.6581 23.1435 60.7414 22.0892 62.138 21.3627C63.5346 20.6347 65.1369 20.2715 66.9434 20.2715C68.7498 20.2715 70.402 20.6347 71.7986 21.3627C73.1952 22.0908 74.2784 23.1403 75.0483 24.5128C75.8181 25.8853 76.2022 27.4989 76.2022 29.3551C76.2022 31.2114 75.8213 32.8764 75.0595 34.2489C74.2977 35.6214 73.2193 36.6709 71.8227 37.3989C70.4261 38.127 68.798 38.4902 66.9418 38.4902C65.0855 38.4902 63.5121 38.127 62.1235 37.3989L62.1251 37.3973ZM71.1477 33.6334C72.0589 32.6884 72.5154 31.2789 72.5154 29.405C72.5154 25.5912 70.6591 23.6835 66.945 23.6835C65.0887 23.6835 63.6985 24.1608 62.7792 25.1138C61.8583 26.0669 61.3987 27.4973 61.3987 29.405C61.3987 31.3126 61.8535 32.7093 62.7664 33.6462C63.6776 34.5832 65.071 35.0509 66.945 35.0509C68.8189 35.0509 70.2364 34.5784 71.1477 33.6334Z" fill="black"/>
<path d="M78.7973 36.8072C77.526 35.687 76.9571 34.0798 77.0905 31.9889L80.8802 31.9391C80.8802 32.7587 81.0087 33.3903 81.2691 33.8339C81.5278 34.2775 81.9377 34.5909 82.4986 34.7741C83.0595 34.9589 83.8405 35.0505 84.845 35.0505C86.1661 35.0505 87.1497 34.8834 87.7941 34.5491C88.437 34.2148 88.76 33.7134 88.76 33.0432C88.76 32.6077 88.6893 32.2814 88.5463 32.0644C88.4033 31.8475 88.1075 31.6675 87.6559 31.5244C87.2043 31.383 86.4843 31.2448 85.4975 31.1098L83.2636 30.7835C81.2225 30.4991 79.6748 29.951 78.6205 29.1394C77.5662 28.3278 77.0391 27.1112 77.0391 25.488C77.0391 23.8647 77.6916 22.5774 78.9966 21.6742C80.3016 20.771 82.1161 20.3033 84.4416 20.2695C87.0179 20.2872 88.924 20.8304 90.1631 21.9008C91.4006 22.9712 91.9695 24.5108 91.8699 26.5182L88.13 26.5439C88.13 25.4558 87.8327 24.7037 87.2397 24.2858C86.645 23.868 85.7209 23.659 84.4673 23.659C81.9248 23.659 80.6536 24.2537 80.6536 25.4414C80.6536 25.8431 80.7243 26.1485 80.8673 26.3574C81.0087 26.5664 81.29 26.7383 81.7078 26.8717C82.1257 27.0051 82.7863 27.1401 83.6911 27.2735L86.0504 27.6255C88.2586 27.9437 89.8851 28.5255 90.9313 29.3692C91.976 30.2146 92.4999 31.4489 92.4999 33.0705C92.4999 34.6921 91.8313 36.0647 90.4926 37.0354C89.1538 38.0061 87.2799 38.4915 84.8707 38.4915H84.845C82.0839 38.4915 80.0686 37.9306 78.7973 36.8104V36.8072Z" fill="black"/>
<path d="M98.8603 24.1099H92.5859V20.6465H108.772V24.1099H102.473V38.2127H98.8603V24.1099Z" fill="black"/>
<path d="M109.836 38.1629V20.6465H116.962C119.053 20.6465 120.789 21.0563 122.169 21.876C123.55 22.6956 124.239 24.0681 124.239 25.9919C124.239 27.0462 124.005 27.9574 123.537 28.7273C123.068 29.4971 122.373 30.1158 121.454 30.5835L125.745 38.2127H121.605L117.917 31.4626C117.7 31.4964 117.365 31.5125 116.912 31.5125H113.449V38.2384L109.836 38.1629ZM119.321 27.8867C119.823 27.7614 120.162 27.5524 120.337 27.2599C120.512 26.9674 120.601 26.5447 120.601 25.9935C120.601 25.4921 120.504 25.1063 120.311 24.8396C120.119 24.5728 119.76 24.3751 119.233 24.2497C118.706 24.1244 117.931 24.0617 116.912 24.0617H113.449V28.0764H117.062C118.066 28.0764 118.818 28.0137 119.32 27.8883L119.321 27.8867Z" fill="black"/>
<path d="M127.309 36.6071C125.996 35.352 125.323 33.4796 125.289 30.9853V20.6465H128.902V31.0351C128.902 32.0396 129.032 32.8287 129.291 33.4073C129.55 33.9843 129.977 34.4021 130.57 34.6625C131.163 34.9212 131.988 35.0514 133.042 35.0514C134.096 35.0514 134.94 34.9261 135.527 34.6753C136.112 34.4246 136.531 34.01 136.782 33.433C137.033 32.856 137.158 32.0573 137.158 31.0367V20.6481H140.747V31.0126C140.747 33.5053 140.068 35.3745 138.714 36.6216C137.359 37.8688 135.459 38.4907 133.018 38.4907C130.577 38.4907 128.622 37.8639 127.309 36.6087V36.6071Z" fill="black"/>
<path d="M141.805 20.6475H145.368L151.415 33.119L157.513 20.6475H161.001V38.2137H157.513V28.3264L152.645 38.2137H150.136L145.292 28.3264V38.2137H141.805V20.6475Z" fill="black"/>
<path d="M42.7266 41.0586H50.6418V42.3749H44.136V45.5972H50.3943V46.899H44.136V50.6019H50.6418V51.9037H42.7266V41.0602V41.0586Z" fill="black"/>
<path d="M51.6016 41.0586H55.9698C57.8084 41.0586 59.2307 41.5134 60.2368 42.4215C61.2445 43.3295 61.7475 44.6618 61.7475 46.4185C61.7475 48.1751 61.2107 49.5781 60.1372 50.5087C59.0636 51.4376 57.5545 51.9021 55.6146 51.9021H51.6016V41.0586ZM60.3075 46.449C60.3075 45.0958 59.9507 44.0768 59.2388 43.389C58.5268 42.7027 57.4371 42.3588 55.9698 42.3588H53.011V50.6147H55.6452C58.7534 50.6147 60.3075 49.2262 60.3075 46.4474V46.449Z" fill="black"/>
<path d="M63.934 50.9725C63.1497 50.2284 62.7415 49.0777 62.7109 47.5187V41.0596H64.1204V47.5653C64.1204 48.6807 64.3808 49.4987 64.9031 50.0211C65.4254 50.5434 66.2692 50.8038 67.436 50.8038C68.6028 50.8038 69.4449 50.545 69.9608 50.0291C70.4767 49.5132 70.7355 48.6919 70.7355 47.5653V41.0596H72.1289V47.5509C72.1289 49.0905 71.7239 50.23 70.9123 50.9741C70.1006 51.7182 68.9371 52.0895 67.4183 52.0895C65.8995 52.0895 64.7183 51.7182 63.9324 50.9741L63.934 50.9725Z" fill="black"/>
<path d="M75.7892 51.4216C74.9261 50.978 74.2608 50.332 73.7915 49.485C73.3206 48.638 73.0859 47.6319 73.0859 46.4635C73.0859 45.2951 73.3238 44.2875 73.7979 43.4357C74.2736 42.5839 74.9422 41.933 75.8036 41.483C76.6651 41.0346 77.6647 40.8096 78.801 40.8096C80.1542 40.8096 81.3033 41.1165 82.2467 41.7305C83.1917 42.3444 83.8442 43.2155 84.2058 44.3405H82.6871C82.3882 43.6173 81.9044 43.0596 81.239 42.6674C80.5737 42.2753 79.7605 42.0792 78.7994 42.0792C77.4253 42.0792 76.3694 42.4617 75.6317 43.2251C74.8924 43.9901 74.5243 45.0685 74.5243 46.4619C74.5243 47.8553 74.894 48.9145 75.6317 49.6682C76.3694 50.422 77.4253 50.798 78.7994 50.798C79.7701 50.798 80.5801 50.61 81.231 50.2323C81.8819 49.8546 82.3624 49.3098 82.671 48.5978H84.1898C83.8073 49.755 83.1467 50.6245 82.2065 51.2079C81.2664 51.7913 80.1301 52.0822 78.7994 52.0822C77.6535 52.0822 76.649 51.8604 75.786 51.4168L75.7892 51.4216Z" fill="black"/>
<path d="M89.5565 41.0586H90.8728L95.9851 51.9021H94.4053L92.9492 48.7569H87.419L85.9629 51.9021H84.4297L89.5565 41.0586ZM92.3755 47.4711L90.1913 42.7461L88.0217 47.4711H92.3739H92.3755Z" fill="black"/>
<path d="M98.0883 42.3749H93.8438V41.0586H103.758V42.3749H99.4977V51.9021H98.0883V42.3749Z" fill="black"/>
<path d="M104.727 41.0586H106.136V51.9021H104.727V41.0586Z" fill="black"/>
<path d="M109.789 51.4216C108.926 50.978 108.261 50.332 107.791 49.485C107.321 48.638 107.086 47.6319 107.086 46.4635C107.086 45.2951 107.324 44.2875 107.798 43.4357C108.274 42.5839 108.942 41.933 109.804 41.483C110.665 41.0346 111.665 40.8096 112.801 40.8096C113.937 40.8096 114.967 41.0314 115.829 41.4749C116.69 41.9185 117.357 42.5646 117.827 43.4116C118.296 44.2585 118.53 45.2646 118.53 46.433C118.53 47.6014 118.297 48.6252 117.833 49.477C117.369 50.3288 116.705 50.978 115.843 51.4216C114.98 51.8652 113.966 52.087 112.799 52.087C111.633 52.087 110.649 51.8652 109.786 51.4216H109.789ZM115.994 49.6554C116.727 48.892 117.094 47.828 117.094 46.4651C117.094 45.1023 116.722 44.0046 115.978 43.2348C115.234 42.4649 114.177 42.0808 112.803 42.0808C111.428 42.0808 110.373 42.4633 109.635 43.2267C108.896 43.9917 108.528 45.0701 108.528 46.4635C108.528 47.8569 108.897 48.9161 109.635 49.6698C110.373 50.4236 111.428 50.7996 112.803 50.7996C114.177 50.7996 115.26 50.4188 115.993 49.6537L115.994 49.6554Z" fill="black"/>
<path d="M119.5 41.0586H120.802L127.587 49.734V41.0586H128.966V51.9021H127.696L120.881 43.2893V51.9021H119.502V41.0586H119.5Z" fill="black"/>
<path d="M22.4037 6.92871V9.50016H2.68716V62.8577H33.2456V19.6702H35.9312V65.4292H0V6.92871H22.4037Z" fill="#CC1E46"/>
<path d="M8.19531 36.3399V28.947H17.2757C18.8266 28.947 20.3743 26.6294 20.3759 25.1701C20.3776 24.0612 18.9102 21.7148 17.7579 21.7148H8.19531V14.1611H17.9186C23.7108 14.1611 28.2398 20.8212 27.7994 26.2919C27.4362 30.8225 22.8381 36.3399 18.0793 36.3399H8.19531Z" fill="#CD1D47"/>
<path d="M27.6419 38.751V44.9385C27.6419 44.9867 27.846 45.0623 27.8026 45.1796H19.6061L27.6387 53.4564L23.1419 57.9613L14.6239 49.8403V58.3583H8.19531V38.751H27.6419Z" fill="#152F79"/>
<path d="M39.5449 6.62791L42.2771 7.44756C42.8749 7.62756 42.8749 8.47292 42.2771 8.65292L39.5449 9.47257C37.8896 9.96918 36.5942 11.2646 36.0976 12.9199L35.2779 15.6521C35.0979 16.2499 34.2526 16.2499 34.0726 15.6521L33.2529 12.9199C32.7563 11.2646 31.4609 9.96918 29.8056 9.47257L27.0734 8.65292C26.4755 8.47292 26.4755 7.62756 27.0734 7.44756L29.8056 6.62791C31.4609 6.1313 32.7563 4.83593 33.2529 3.18056L34.0726 0.448396C34.2526 -0.149465 35.0979 -0.149465 35.2779 0.448396L36.0976 3.18056C36.5942 4.83593 37.8896 6.1313 39.5449 6.62791Z" fill="#CC1E46"/>
</g>
<defs>
<clipPath id="clip0_3694_24636">
<rect width="161" height="65.4289" fill="white"/>
</clipPath>
</defs>
</svg>
